<?xml version="1.0" standalone="no"?>
<!DOCTYPE svg PUBLIC "-//W3C//DTD SVG 20010904//EN"
 "http://www.w3.org/TR/2001/REC-SVG-20010904/DTD/svg10.dtd">
<svg version="1.0" xmlns="http://www.w3.org/2000/svg"
 width="1500" height="500" viewBox="0 0 1378 1130 "
 preserveAspectRatio="xMidYMid meet">
<metadata>
Created by potrace 1.15, written by Peter Selinger 2001-2017
</metadata>
<g transform="translate(0.000000,1130.000000) scale(0.100000,-0.100000)"
fill="#000000" stroke="none">
<path d="M7880 11073 c-26 -10 -50 -35 -114 -118 -33 -44 -94 -115 -136 -159
-186 -195 -312 -251 -619 -277 -148 -12 -484 -7 -613 10 -64 9 -112 9 -175 1
-49 -5 -135 -15 -193 -21 -72 -7 -137 -21 -205 -45 -143 -48 -217 -45 -307 13
-30 20 -53 56 -130 205 -105 205 -151 264 -235 304 -45 21 -67 25 -108 22 -71
-6 -111 -36 -146 -113 -25 -52 -31 -81 -39 -196 -11 -144 -14 -157 -95 -414
-35 -110 -56 -196 -60 -245 -8 -97 -30 -173 -58 -205 -17 -19 -40 -28 -100
-40 -176 -33 -269 -111 -372 -315 -14 -28 -35 -60 -45 -70 -27 -27 -74 -26
-101 3 -30 30 -167 215 -281 377 -141 199 -238 289 -398 370 -127 64 -229 92
-360 97 -200 9 -306 -31 -440 -166 -69 -70 -94 -104 -133 -181 -57 -113 -73
-188 -82 -370 -7 -152 -16 -203 -175 -965 -60 -286 -113 -563 -119 -615 -6
-54 -10 -261 -9 -480 0 -216 -5 -476 -12 -593 -15 -241 -9 -516 15 -667 26
-172 114 -605 150 -745 32 -121 71 -243 160 -493 23 -66 35 -115 33 -140 -3
-32 -7 -38 -38 -49 -80 -27 -235 -14 -635 54 -169 28 -225 34 -288 29 -96 -7
-223 -49 -369 -122 l-108 -54 0 -94 c0 -99 -12 -151 -39 -165 -9 -5 -56 -3
-111 6 -194 28 -383 -23 -503 -136 -135 -128 -153 -267 -65 -505 63 -172 80
-204 353 -651 160 -262 246 -416 319 -575 71 -153 96 -192 229 -357 137 -171
146 -203 81 -273 -12 -14 -35 -52 -51 -85 -26 -55 -28 -70 -28 -175 0 -130 16
-192 88 -335 100 -200 219 -325 467 -487 264 -173 614 -308 1175 -454 138 -36
402 -108 589 -160 512 -144 563 -154 891 -179 122 -9 260 -27 354 -45 l154
-30 2328 0 2329 0 173 35 c96 19 246 52 333 74 238 60 535 126 749 166 684
128 1339 368 1661 607 202 151 321 291 424 503 113 230 128 431 45 594 -13 27
-51 82 -83 122 -111 138 -120 174 -96 389 13 126 15 210 11 450 -8 379 -28
534 -109 855 -58 228 -129 413 -331 861 -132 294 -307 558 -476 716 -159 150
-272 167 -352 54 -30 -43 -33 -44 -55 -30 -56 37 -78 174 -54 335 16 107 23
1253 9 1454 -53 739 -323 1508 -728 2070 -158 220 -332 429 -654 786 -392 437
-451 493 -659 630 -239 157 -378 192 -461 115 -38 -35 -55 -109 -72 -315 -17
-195 -35 -328 -61 -446 -10 -44 -14 -97 -11 -143 3 -51 1 -72 -7 -68 -57 25
-116 46 -138 51 -34 7 -155 125 -191 185 -15 27 -52 142 -91 285 -104 387
-170 574 -237 671 -41 60 -105 87 -159 67z m1165 -431 c134 -64 292 -173 423
-294 78 -72 649 -702 768 -848 96 -118 275 -359 336 -451 327 -497 548 -1138
613 -1782 19 -189 21 -1299 3 -1463 -19 -161 -17 -308 5 -373 25 -74 60 -126
109 -161 108 -78 192 -62 269 51 l17 24 58 -46 c117 -92 268 -290 394 -518 98
-179 316 -684 375 -871 63 -203 116 -474 136 -695 10 -125 7 -547 -7 -842 -6
-122 -6 -123 -30 -123 -33 0 -86 -23 -129 -56 l-35 -26 0 151 0 151 -65 0 -65
0 0 -209 c0 -141 4 -211 11 -213 6 -2 -10 -38 -36 -82 -25 -43 -80 -146 -122
-230 -78 -156 -171 -289 -237 -340 -63 -48 -111 -61 -206 -56 l-35 1 42 19 43
19 -29 79 c-18 48 -53 113 -90 164 l-61 85 0 141 c0 83 -6 172 -15 219 -22
113 -22 975 0 1192 l15 151 -35 101 -35 101 0 799 0 799 -86 0 c-65 0 -85 3
-81 13 21 57 23 54 -69 82 -47 14 -87 25 -89 23 -11 -11 -88 -284 -109 -383
-14 -66 -39 -179 -56 -252 -23 -102 -30 -155 -30 -236 l0 -105 -66 -169 c-98
-249 -478 -1048 -615 -1293 -36 -63 -89 -176 -119 -250 -30 -74 -76 -174 -103
-223 -41 -74 -56 -91 -91 -108 -22 -11 -56 -33 -74 -50 l-34 -30 27 -35 c15
-20 25 -36 24 -38 -2 -1 -28 -13 -57 -26 -29 -13 -119 -66 -200 -116 -81 -51
-148 -91 -150 -89 -17 16 -31 143 -32 273 l0 152 -65 0 -65 0 0 -157 c1 -115
6 -180 19 -238 l18 -80 31 3 32 2 -40 -37 c-76 -68 -106 -140 -140 -334 -41
-231 -96 -365 -252 -609 -160 -250 -244 -352 -342 -415 -98 -63 -131 -69 -338
-70 -104 0 -188 3 -188 7 0 4 14 24 32 45 18 21 38 45 46 54 12 15 -10 36
-200 190 -338 276 -425 356 -536 492 -56 69 -110 140 -121 158 -10 19 -36 92
-56 163 -46 158 -171 407 -282 563 l-73 101 0 110 0 110 -45 83 -45 84 0 358
0 357 -37 1 c-31 0 -34 2 -17 9 30 12 63 56 69 94 2 17 9 105 15 196 17 272
35 358 135 625 35 94 85 240 110 325 26 85 69 225 95 310 27 85 65 214 85 285
20 72 57 174 82 227 l46 98 41 -33 c61 -49 104 -73 173 -96 57 -19 85 -21 315
-21 338 0 521 26 592 81 61 48 72 125 32 222 l-24 59 31 13 c18 7 48 16 67 20
59 11 124 48 147 84 48 72 23 164 -69 245 -114 103 -189 121 -463 111 l-190
-6 34 35 c34 35 35 36 55 17 40 -35 43 -34 115 61 135 180 183 278 310 626 43
119 106 280 139 357 87 206 135 362 186 610 25 120 83 482 108 670 16 129 14
547 -4 675 l-13 95 -45 0 -45 0 -11 117 c-6 64 -17 139 -24 167 -11 49 -11 52
14 82 31 36 33 76 10 155 -8 29 -14 70 -12 91 l3 37 180 -161 c352 -314 531
-518 786 -893 114 -167 439 -741 517 -911 l47 -104 3 -142 4 -143 89 0 89 0 0
159 0 159 -63 138 c-89 195 -400 749 -525 934 -58 85 -169 238 -248 340 -157
204 -342 395 -614 635 l-155 136 -58 -63 c-46 -49 -57 -58 -53 -38 32 137 47
241 56 366 11 153 28 302 36 316 8 13 27 9 89 -20z m-1135 -430 c25 -91 68
-178 131 -264 117 -158 262 -254 432 -285 105 -19 138 -42 161 -111 44 -134
70 -614 45 -853 -14 -139 -46 -302 -135 -684 -198 -853 -226 -954 -354 -1252
-100 -234 -156 -328 -250 -424 -106 -107 -246 -198 -307 -199 -40 -1 -96 -23
-162 -63 -43 -27 -83 -41 -166 -58 -97 -19 -135 -21 -310 -18 -366 6 -377 5
-414 -16 -51 -30 -74 -67 -79 -129 -6 -74 29 -146 103 -215 100 -91 170 -104
372 -71 65 11 97 12 149 3 36 -6 68 -14 72 -17 3 -3 -15 -50 -41 -104 -25 -53
-63 -153 -83 -222 -20 -69 -58 -195 -84 -280 -27 -85 -58 -189 -69 -230 -31
-111 -96 -306 -156 -466 -30 -78 -61 -170 -70 -205 -9 -35 -18 -71 -21 -79 -3
-8 -61 152 -129 356 -133 403 -157 458 -244 579 -78 108 -91 135 -91 196 0 38
8 66 32 111 l32 60 -12 123 c-33 329 -93 507 -205 609 -54 49 -93 68 -192 96
-105 29 -147 52 -213 114 -174 162 -537 749 -795 1286 -138 286 -193 440 -221
621 -21 135 -37 181 -104 311 l-55 108 -8 207 c-7 183 -11 220 -36 308 -51
183 -35 268 73 385 56 60 132 106 224 135 216 69 331 227 390 535 15 76 49
351 50 404 0 6 17 -20 38 -59 110 -207 243 -312 407 -323 97 -6 143 7 295 80
160 77 213 95 316 108 110 14 220 0 372 -46 222 -67 277 -78 412 -77 288 0
519 78 750 252 l105 79 13 -122 c7 -66 21 -154 32 -194z m-4779 -133 c132 -36
271 -120 364 -220 28 -30 93 -115 145 -189 110 -158 196 -275 257 -346 l43
-52 -26 -6 c-20 -6 -25 -11 -21 -29 3 -12 15 -80 27 -152 l22 -130 95 -157
c92 -151 96 -162 147 -336 41 -143 58 -187 83 -215 22 -25 36 -58 52 -125 l23
-90 34 10 c20 5 40 8 46 6 5 -2 23 -53 38 -113 15 -61 52 -171 81 -245 147
-372 558 -1113 788 -1420 131 -176 223 -265 319 -311 39 -19 71 -36 71 -39 0
-3 -24 -20 -53 -37 -63 -38 -74 -39 -271 -18 -269 28 -495 15 -564 -34 -38
-28 -49 -80 -24 -122 10 -17 74 -69 150 -121 l132 -91 -44 -49 c-95 -105 -132
-236 -91 -316 51 -98 223 -114 676 -61 234 27 289 37 351 63 15 6 17 -1 18
-51 1 -93 29 -159 121 -288 76 -107 88 -131 163 -346 98 -278 190 -578 257
-837 60 -234 84 -296 124 -312 16 -7 8 -9 -31 -9 l-53 -1 0 -330 0 -330 50
-100 c48 -96 50 -103 50 -185 0 -65 3 -85 14 -85 9 0 15 -21 20 -69 7 -68 10
-73 92 -188 121 -167 225 -377 285 -573 l47 -155 133 -165 c143 -178 214 -244
592 -550 l179 -145 -122 -7 c-66 -4 -158 -11 -203 -16 -93 -12 -217 -2 -303
23 -65 19 -139 54 -322 154 -73 40 -176 92 -230 116 -101 44 -272 105 -298
105 -23 0 -16 16 12 29 l25 11 -19 33 c-11 17 -28 47 -38 65 -27 48 -401 348
-559 448 -131 84 -136 88 -246 222 -61 75 -116 138 -123 139 -6 2 -31 -14 -55
-35 l-44 -39 122 -149 c122 -148 124 -150 259 -236 159 -101 517 -388 545
-436 l20 -34 -49 7 c-118 16 -486 124 -511 149 -4 3 3 16 15 29 l22 23 -107
99 c-86 80 -138 119 -267 195 -241 143 -489 336 -672 522 -137 138 -159 166
-232 289 -45 74 -120 217 -167 317 -70 149 -110 217 -217 372 -72 105 -135
190 -140 190 -6 0 -23 -10 -40 -21 -34 -25 -41 -20 -57 41 -8 30 -46 91 -108
175 -53 72 -136 195 -185 275 -82 134 -95 151 -179 220 -68 56 -121 114 -211
230 -67 85 -175 210 -242 277 l-121 123 -123 41 -124 41 -141 124 -142 123
-42 -47 c-23 -26 -42 -49 -42 -52 0 -3 68 -63 150 -133 l149 -128 118 -40 117
-39 113 -113 c61 -61 165 -179 229 -262 85 -109 144 -173 215 -234 91 -77 105
-94 180 -220 45 -75 119 -185 163 -246 45 -60 85 -116 89 -123 24 -41 126
-407 146 -525 l23 -138 -22 -132 c-22 -128 -24 -135 -78 -216 -57 -86 -56 -84
-13 -111 12 -7 8 -15 -22 -40 -20 -17 -54 -57 -76 -90 l-39 -60 -46 153 c-25
83 -57 205 -70 270 -25 116 -27 121 -164 368 -129 234 -146 259 -255 384 -81
93 -120 146 -127 172 -5 21 -20 79 -32 128 l-22 90 -178 185 c-212 222 -210
220 -289 343 l-62 97 -137 70 c-128 66 -145 78 -281 205 -145 135 -146 135
-338 236 -186 97 -198 102 -380 148 -103 26 -197 51 -209 55 -23 7 -24 5 -48
-95 l-6 -26 203 -52 c194 -50 210 -57 375 -142 168 -88 175 -93 325 -230 142
-130 162 -145 279 -204 l126 -64 66 -103 c36 -57 93 -130 126 -163 34 -33 61
-63 61 -67 0 -5 -37 10 -82 33 -67 34 -107 65 -213 166 -100 96 -187 165 -378
300 -217 154 -267 184 -410 251 -99 46 -242 101 -367 142 -195 63 -205 68
-203 91 1 13 5 56 9 96 l7 72 76 34 c154 70 248 88 376 70 47 -6 47 -6 42 -38
l-5 -32 166 -49 167 -48 123 -127 c100 -104 143 -140 235 -198 61 -38 201
-139 309 -223 190 -148 199 -157 285 -273 48 -66 130 -175 182 -241 74 -96
108 -152 166 -273 71 -148 157 -271 189 -271 6 0 29 18 51 40 l39 40 -43 47
c-26 29 -73 111 -122 210 -58 118 -100 188 -156 260 -42 54 -128 167 -190 250
l-113 153 -203 157 c-111 86 -254 190 -317 230 -95 60 -134 93 -223 187 -59
63 -107 116 -107 118 0 2 26 1 58 -3 225 -28 376 14 430 121 41 81 33 123 -78
440 -85 242 -122 380 -185 701 -92 466 -103 595 -81 959 10 155 16 414 16 660
0 468 -7 409 115 990 171 818 176 844 185 1008 4 85 10 156 13 158 2 2 83 -60
179 -138 137 -111 209 -161 324 -226 l149 -83 110 -147 c258 -343 420 -519
640 -697 61 -49 60 -49 101 7 l38 51 -34 26 c-19 14 -92 77 -162 140 -140 124
-235 233 -463 530 l-150 196 -162 91 c-133 74 -194 117 -330 229 l-167 138
-34 -39 -34 -39 6 30 c4 17 23 63 42 104 43 88 145 196 217 229 97 45 221 49
358 11z m1059 -881 c0 -29 14 -100 31 -158 24 -83 32 -131 36 -230 6 -145 16
-150 -106 51 -79 131 -83 139 -101 244 -26 141 -26 135 13 128 17 -2 48 0 67
5 59 17 60 16 60 -40z m4343 -3268 c26 -16 47 -33 47 -38 0 -5 -26 -15 -57
-22 -71 -17 -140 -64 -165 -110 -23 -45 -23 -116 1 -180 l19 -50 -37 -10 c-63
-18 -310 -32 -491 -28 -167 3 -177 4 -226 30 -28 15 -65 38 -82 53 -39 33 -82
119 -82 164 1 76 65 165 145 202 37 17 72 19 461 19 l420 0 47 -30z m-2656
-169 c23 -11 48 -30 56 -43 18 -27 41 -113 58 -219 11 -69 11 -82 -6 -125 -23
-62 -61 -99 -111 -113 -141 -37 -734 -77 -773 -52 -23 15 25 97 101 171 62 61
68 71 68 107 0 58 -32 98 -133 167 l-88 61 103 3 c57 2 176 -4 265 -13 90 -9
183 -13 208 -9 25 3 73 23 108 45 71 44 86 46 144 20z m5407 -2294 l29 -78
-17 -177 c-22 -240 -23 -1035 -1 -1127 10 -41 14 -119 15 -244 l0 -184 71 -99
c61 -86 99 -152 99 -174 0 -10 -48 5 -153 47 -128 51 -219 98 -213 108 3 5 19
14 36 21 16 7 30 16 30 21 0 5 -20 49 -44 97 -24 48 -47 107 -51 132 -4 25
-29 158 -56 295 l-49 250 35 329 c24 223 35 377 35 477 0 109 7 193 26 316 25
164 25 178 23 623 l-3 455 48 215 c26 118 60 256 74 305 l27 90 5 -810 5 -810
29 -78z m-10059 768 c124 -40 271 -96 366 -140 138 -63 189 -94 396 -240 190
-134 265 -194 371 -297 l133 -128 207 -104 c200 -100 210 -107 264 -170 48
-56 59 -76 74 -139 17 -72 20 -77 135 -206 111 -124 125 -146 253 -374 l135
-242 30 -135 c16 -74 43 -180 60 -235 28 -91 29 -101 15 -122 -13 -21 -22 -23
-112 -23 -82 0 -115 -6 -212 -35 -112 -34 -115 -34 -131 -15 -16 18 -17 18
-64 -15 -26 -19 -50 -37 -52 -39 -3 -3 10 -26 29 -52 18 -27 36 -52 39 -57 3
-4 75 12 159 37 144 43 161 46 269 46 l116 0 43 47 c40 44 39 41 -20 -47 -86
-129 -178 -221 -259 -260 -35 -16 -70 -30 -77 -30 -7 0 -56 32 -110 71 -75 56
-182 114 -472 258 -315 156 -411 209 -590 325 l-215 139 -158 181 c-87 100
-170 199 -184 221 -15 22 -57 84 -95 137 l-69 98 -49 -36 c-28 -20 -50 -39
-50 -42 1 -25 234 -334 364 -482 l158 -179 233 -151 c133 -86 284 -175 352
-206 65 -31 120 -58 123 -61 3 -2 -3 -10 -13 -17 -23 -18 -23 -21 24 -92 47
-72 15 -59 364 -159 127 -37 232 -69 234 -70 1 -2 -39 -25 -90 -51 -86 -43
-102 -48 -179 -52 -73 -4 -103 0 -200 26 -296 79 -497 161 -705 286 -253 153
-335 225 -477 416 -95 129 -114 148 -154 159 -27 7 -29 12 -35 67 -7 76 -38
132 -134 249 -107 131 -177 237 -225 345 -63 142 -163 322 -363 650 -216 354
-254 425 -302 555 -53 142 -63 210 -41 269 23 60 88 116 174 152 75 30 161 36
327 20 73 -7 97 -5 125 7 19 8 40 14 47 12 6 -2 104 -34 218 -70z m9660 -789
c-19 -126 -25 -208 -26 -334 0 -116 -10 -258 -32 -467 l-32 -300 58 -305 c50
-261 68 -334 104 -417 3 -7 -29 1 -71 19 -73 29 -78 33 -141 119 -36 49 -90
140 -121 202 -51 101 -99 168 -245 340 -4 5 -39 -17 -78 -49 -59 -49 -68 -60
-58 -73 6 -9 43 -54 82 -101 45 -54 93 -130 135 -211 l66 -127 -69 19 c-140
39 -234 103 -379 259 -51 56 -94 104 -96 109 -1 5 21 18 50 30 52 21 55 25
121 142 37 66 90 177 118 247 27 70 83 188 124 262 89 164 241 472 395 799
l115 244 3 -120 c2 -90 -4 -163 -23 -287z m-6678 -761 c63 -91 115 -185 176
-313 48 -101 123 -245 168 -320 76 -127 95 -150 253 -311 204 -207 437 -389
695 -543 150 -89 227 -145 217 -155 -2 -3 -66 19 -142 48 -76 28 -233 80 -349
116 -222 68 -306 106 -457 207 -131 87 -262 201 -403 351 -139 147 -176 175
-230 178 -19 1 -35 4 -35 6 0 2 10 20 23 39 15 25 32 89 52 197 l31 160 -28
160 c-24 136 -47 233 -75 312 -10 30 10 5 104 -132z"/>
<path d="M7674 4952 c-41 -91 -77 -195 -108 -310 -38 -143 -59 -199 -116 -313
l-70 -139 0 -275 0 -275 90 0 90 0 0 250 0 250 65 131 c53 105 75 165 114 308
31 116 68 221 105 305 32 70 56 129 54 131 -3 2 -159 75 -162 75 -1 0 -29 -62
-62 -138z"/>
<path d="M9959 3837 c-53 -94 -128 -242 -168 -328 l-72 -156 -92 -64 c-64 -45
-171 -144 -356 -328 -245 -244 -272 -274 -352 -397 -48 -73 -135 -196 -194
-274 l-107 -142 -55 -202 c-30 -110 -79 -319 -109 -464 -30 -145 -70 -334 -89
-419 -34 -153 -35 -162 -35 -375 l0 -218 95 0 95 0 0 225 c0 186 3 238 19 307
11 46 49 225 85 398 36 173 87 394 114 490 l48 175 105 140 c58 77 140 193
182 258 68 104 107 147 330 370 193 192 278 269 358 326 l106 73 83 182 c66
143 159 320 266 508 4 6 -138 88 -153 88 -4 0 -51 -78 -104 -173z"/>
<path d="M7280 2975 l0 -315 90 0 90 0 0 315 0 315 -90 0 -90 0 0 -315z"/>
<path d="M12060 2869 l0 -421 -65 -84 -65 -84 0 -87 c0 -80 -2 -89 -26 -115
-30 -30 -29 -32 28 -100 l23 -27 53 42 52 42 0 99 0 99 65 85 65 85 0 443 0
444 -65 0 -65 0 0 -421z"/>
<path d="M6056 9623 c-42 -11 -98 -56 -127 -101 -46 -72 -62 -141 -57 -241 5
-95 27 -151 82 -209 111 -118 288 -61 357 114 34 87 33 218 -2 294 -54 116
-148 169 -253 143z"/>
<path d="M6950 9462 c-33 -5 -79 -48 -97 -91 -19 -45 -18 -148 3 -199 35 -88
141 -118 204 -57 43 41 60 86 60 159 -1 127 -70 205 -170 188z"/>
<path d="M7216 9068 c-15 -73 -32 -161 -39 -195 l-12 -62 -100 40 -100 39
-198 0 c-193 0 -202 -1 -340 -35 -78 -20 -152 -40 -165 -45 -13 -6 -67 -43
-120 -84 l-97 -73 -90 99 c-50 54 -115 126 -146 160 l-56 62 -57 -48 c-31 -27
-56 -52 -56 -56 0 -4 56 -68 123 -141 68 -74 129 -145 136 -158 7 -13 37 -82
67 -154 l54 -130 0 -194 0 -194 -66 -350 c-36 -193 -63 -353 -60 -356 8 -8
140 -33 145 -27 3 3 130 665 131 681 0 1 57 -25 128 -58 l127 -59 154 0 c139
0 166 3 265 29 61 16 137 31 170 33 l58 3 29 -80 c16 -44 59 -141 95 -215 61
-124 72 -140 138 -198 l70 -63 62 68 62 68 -59 54 c-69 61 -121 156 -195 351
l-44 115 0 238 0 239 36 81 c28 64 45 133 85 344 27 146 54 283 59 306 5 23
10 47 10 53 0 9 -138 44 -171 44 -3 0 -18 -60 -33 -132z m-198 -425 c52 -21
96 -43 99 -49 3 -7 -14 -54 -36 -105 l-41 -92 0 -207 0 -208 -62 -7 c-35 -4
-103 -18 -153 -31 -75 -20 -113 -24 -231 -24 l-142 0 -96 45 c-54 25 -101 45
-105 45 -4 0 -22 -30 -39 -67 l-32 -68 0 218 0 219 -40 95 c-38 92 -46 129
-18 84 7 -12 16 -21 21 -21 4 0 51 32 104 72 91 69 101 74 217 104 112 30 133
32 291 33 l170 1 93 -37z"/>
<path d="M8055 8899 c-160 -16 -265 -89 -265 -185 0 -124 191 -212 404 -186
173 21 275 98 263 198 -13 118 -191 195 -402 173z"/>
<path d="M4874 8734 c-134 -32 -226 -123 -210 -207 16 -86 126 -158 275 -179
205 -29 414 57 437 179 16 86 -77 176 -217 207 -83 19 -203 19 -285 0z"/>
<path d="M2692 7368 c-38 -8 -43 -12 -39 -31 3 -12 29 -146 57 -297 162 -871
255 -1291 436 -1963 l75 -278 91 -142 c59 -92 112 -191 152 -283 40 -93 78
-164 109 -204 l48 -61 27 20 c15 11 38 29 51 39 l24 19 -45 59 c-26 35 -68
114 -102 194 -36 84 -89 184 -141 265 -46 72 -88 141 -94 155 -14 33 -144 522
-220 825 -52 209 -214 1004 -311 1523 -36 192 -27 181 -118 160z"/>
</g>
</svg>
